<svg width="347" height="148" viewBox="0 0 347 148" fill="none" xmlns="http://www.w3.org/2000/svg">
<g opacity="0.75">
<path d="M61.1662 116.459H0V92.3989L57.9148 2.42623H85.5514V94.623H106.482V116.459H85.5514V145.574H61.1662V116.459ZM61.1662 36.7978H60.7598L24.7916 94.623H61.1662V36.7978Z" fill="#F8F8F8"/>
<path d="M121.478 74C121.478 62.6776 122.359 53.0401 124.12 45.0874C126.017 37 128.455 30.2605 131.436 24.8689C134.416 19.3424 137.735 14.9617 141.393 11.7268C145.186 8.35701 148.979 5.86338 152.773 4.24589C156.701 2.49362 160.427 1.34791 163.949 0.808742C167.607 0.269579 170.791 0 173.5 0C176.209 0 179.325 0.269579 182.848 0.808742C186.505 1.34791 190.231 2.49362 194.024 4.24589C197.953 5.86338 201.746 8.35701 205.404 11.7268C209.197 14.9617 212.584 19.3424 215.564 24.8689C218.545 30.2605 220.916 37 222.677 45.0874C224.573 53.0401 225.522 62.6776 225.522 74C225.522 85.3224 224.573 95.0273 222.677 103.115C220.916 111.067 218.545 117.807 215.564 123.333C212.584 128.725 209.197 133.106 205.404 136.475C201.746 139.71 197.953 142.204 194.024 143.956C190.231 145.574 186.505 146.652 182.848 147.191C179.325 147.73 176.209 148 173.5 148C170.791 148 167.607 147.73 163.949 147.191C160.427 146.652 156.701 145.574 152.773 143.956C148.979 142.204 145.186 139.71 141.393 136.475C137.735 133.106 134.416 128.725 131.436 123.333C128.455 117.807 126.017 111.067 124.12 103.115C122.359 95.0273 121.478 85.3224 121.478 74ZM145.863 74C145.863 78.4481 146.134 83.6375 146.676 89.5683C147.354 95.3643 148.641 100.891 150.537 106.148C152.434 111.404 155.211 115.852 158.869 119.492C162.527 123.131 167.404 124.951 173.5 124.951C179.596 124.951 184.473 123.131 188.131 119.492C191.789 115.852 194.566 111.404 196.463 106.148C198.359 100.891 199.579 95.3643 200.12 89.5683C200.798 83.6375 201.137 78.4481 201.137 74C201.137 69.5519 200.798 64.4299 200.12 58.6339C199.579 52.7031 198.359 47.1093 196.463 41.8525C194.566 36.5956 191.789 32.1475 188.131 28.5082C184.473 24.8688 179.596 23.0492 173.5 23.0492C167.404 23.0492 162.527 24.8688 158.869 28.5082C155.211 32.1475 152.434 36.5956 150.537 41.8525C148.641 47.1093 147.354 52.7031 146.676 58.6339C146.134 64.4299 145.863 69.5519 145.863 74Z" fill="#F8F8F8"/>
<path d="M301.684 116.459H240.518V92.3989L298.433 2.42623H326.069V94.623H347V116.459H326.069V145.574H301.684V116.459ZM301.684 36.7978H301.278L265.31 94.623H301.684V36.7978Z" fill="#F8F8F8"/>
</g>
</svg>
