<svg width="347" height="153" viewBox="0 0 347 153" fill="none" xmlns="http://www.w3.org/2000/svg">
<g opacity="0.75">
<path d="M95.9268 24.9701H36.6228L35.9986 54.31C37.9407 53.6163 40.3683 53.1308 43.2815 52.8534C46.3334 52.5759 49.1772 52.4372 51.813 52.4372C59.0266 52.4372 65.6159 53.6163 71.581 55.9746C77.6848 58.1942 82.8869 61.4542 87.1873 65.7546C91.4877 70.055 94.8171 75.1877 97.1754 81.1528C99.6724 87.1179 100.921 93.846 100.921 101.337C100.921 109.244 99.5336 116.388 96.7592 122.77C94.1234 129.012 90.3779 134.353 85.5226 138.792C80.8061 143.093 75.1878 146.422 68.6678 148.78C62.1478 151.139 55.1423 152.318 47.6513 152.318C35.8599 152.318 25.8024 149.543 17.4791 143.994C9.29443 138.445 3.46807 129.983 0 118.608L26.2186 111.533C27.8833 116.805 30.7271 120.966 34.7501 124.018C38.773 127.07 43.9751 128.596 50.3564 128.596C54.1019 128.596 57.5006 127.972 60.5525 126.723C63.7431 125.475 66.4482 123.741 68.6678 121.521C71.0261 119.163 72.8295 116.458 74.078 113.406C75.3265 110.354 75.9508 107.025 75.9508 103.418C75.9508 98.2851 74.9797 93.9153 73.0376 90.3085C71.2342 86.7017 68.7372 83.7886 65.5465 81.569C62.3559 79.2107 58.6798 77.546 54.5181 76.575C50.3564 75.4652 45.9866 74.9103 41.4088 74.9103C35.9986 74.9103 30.5884 75.5345 25.1782 76.7831C19.9067 78.0316 15.0514 79.7656 10.6123 81.9852L12.0689 2.49698H95.9268V24.9701Z" fill="#F8F8F8"/>
<path d="M122.311 76.1588C122.311 64.5061 123.213 54.5874 125.016 46.4028C126.958 38.0794 129.455 31.1432 132.507 25.5943C135.559 19.9067 138.958 15.3982 142.704 12.0689C146.588 8.60078 150.472 6.03441 154.356 4.36973C158.379 2.56634 162.194 1.3872 165.801 0.832309C169.546 0.277417 172.806 -3.05176e-05 175.581 -3.05176e-05C178.355 -3.05176e-05 181.546 0.277417 185.153 0.832309C188.898 1.3872 192.713 2.56634 196.597 4.36973C200.62 6.03441 204.505 8.60078 208.25 12.0689C212.134 15.3982 215.602 19.9067 218.654 25.5943C221.706 31.1432 224.134 38.0794 225.937 46.4028C227.879 54.5874 228.85 64.5061 228.85 76.1588C228.85 87.8115 227.879 97.7996 225.937 106.123C224.134 114.308 221.706 121.244 218.654 126.931C215.602 132.48 212.134 136.989 208.25 140.457C204.505 143.786 200.62 146.353 196.597 148.156C192.713 149.821 188.898 150.93 185.153 151.485C181.546 152.04 178.355 152.318 175.581 152.318C172.806 152.318 169.546 152.04 165.801 151.485C162.194 150.93 158.379 149.821 154.356 148.156C150.472 146.353 146.588 143.786 142.704 140.457C138.958 136.989 135.559 132.48 132.507 126.931C129.455 121.244 126.958 114.308 125.016 106.123C123.213 97.7996 122.311 87.8115 122.311 76.1588ZM147.281 76.1588C147.281 80.7366 147.559 86.0775 148.114 92.1813C148.807 98.1464 150.125 103.834 152.067 109.244C154.009 114.654 156.853 119.232 160.599 122.978C164.344 126.723 169.338 128.596 175.581 128.596C181.823 128.596 186.817 126.723 190.563 122.978C194.308 119.232 197.152 114.654 199.094 109.244C201.036 103.834 202.285 98.1464 202.84 92.1813C203.533 86.0775 203.88 80.7366 203.88 76.1588C203.88 71.5809 203.533 66.3095 202.84 60.3444C202.285 54.2406 201.036 48.4836 199.094 43.0734C197.152 37.6632 194.308 33.0854 190.563 29.3398C186.817 25.5943 181.823 23.7216 175.581 23.7216C169.338 23.7216 164.344 25.5943 160.599 29.3398C156.853 33.0854 154.009 37.6632 152.067 43.0734C150.125 48.4836 148.807 54.2406 148.114 60.3444C147.559 66.3095 147.281 71.5809 147.281 76.1588Z" fill="#F8F8F8"/>
<path d="M283.326 61.801H289.777C293.384 61.801 296.852 61.5929 300.181 61.1767C303.649 60.7606 306.701 59.8589 309.337 58.4716C312.111 57.0844 314.331 55.0729 315.995 52.4372C317.66 49.8015 318.492 46.264 318.492 41.8249C318.492 36.1373 316.55 31.4901 312.666 27.8833C308.782 24.2765 303.718 22.4731 297.476 22.4731C292.482 22.4731 287.973 23.9297 283.95 26.8428C280.066 29.6173 277.222 33.5709 275.419 38.7036L248.992 31.6288C250.657 26.2186 253.015 21.502 256.067 17.479C259.119 13.4561 262.726 10.1961 266.888 7.69909C271.049 5.06335 275.627 3.12123 280.621 1.87273C285.615 0.624222 290.817 -3.05176e-05 296.227 -3.05176e-05C302.609 -3.05176e-05 308.643 0.832307 314.331 2.49698C320.018 4.16165 325.012 6.65866 329.313 9.98801C333.613 13.1786 337.012 17.271 339.509 22.265C342.145 27.1203 343.463 32.8079 343.463 39.3279C343.463 47.2351 341.243 54.31 336.804 60.5525C332.365 66.6563 326.192 70.6792 318.284 72.6214V73.0375C327.718 74.4248 334.862 78.4477 339.717 85.1064C344.572 91.7651 347 99.6723 347 108.828C347 115.903 345.613 122.145 342.838 127.556C340.203 132.966 336.596 137.544 332.018 141.289C327.44 144.896 322.099 147.67 315.995 149.613C310.03 151.416 303.788 152.318 297.268 152.318C291.164 152.318 285.407 151.624 279.997 150.237C274.587 148.988 269.662 146.977 265.223 144.202C260.922 141.428 257.177 137.89 253.986 133.59C250.796 129.151 248.368 123.879 246.703 117.776L273.338 110.701C274.864 116.805 277.569 121.521 281.453 124.851C285.338 128.18 290.609 129.845 297.268 129.845C300.597 129.845 303.718 129.29 306.632 128.18C309.684 127.07 312.319 125.544 314.539 123.602C316.897 121.521 318.701 119.094 319.949 116.319C321.336 113.406 322.03 110.215 322.03 106.747C322.03 102.031 320.989 98.2157 318.909 95.3026C316.966 92.2506 314.4 89.9617 311.21 88.4358C308.158 86.7711 304.69 85.6613 300.805 85.1064C296.921 84.5515 293.106 84.2741 289.361 84.2741H283.326V61.801Z" fill="#F8F8F8"/>
</g>
</svg>
