<?xml version="1.0" encoding="UTF-8"?>
<svg width="21px" height="26px" viewBox="0 0 21 26" version="1.1" xmlns="http://www.w3.org/2000/svg" xmlns:xlink="http://www.w3.org/1999/xlink">
    <!-- Generator: Sketch 54.1 (76490) - https://sketchapp.com -->
    <title>icon/bell</title>
    <desc>Created with Sketch.</desc>
    <g id="Symbols" stroke="none" stroke-width="1" fill="none" fill-rule="evenodd">
        <g id="Icon-/-Notification-/-Default" transform="translate(0.000000, -6.000000)" fill="#0077FF">
            <g id="Group">
                <path d="M18,23.5324675 L20.5714286,26.1298701 L20.5714286,27.4285714 L0,27.4285714 L0,26.1298701 L2.57142857,23.5324675 L2.57142857,17.038961 C2.57142857,13.038961 4.68,9.71428571 8.35714286,8.83116883 L8.35714286,7.94805195 C8.35714286,6.87012987 9.21857143,6 10.2857143,6 C11.3528571,6 12.2142857,6.87012987 12.2142857,7.94805195 L12.2142857,8.83116883 C15.9042857,9.71428571 18,13.0519481 18,17.038961 L18,23.5324675 Z M10.2857143,31.7142857 C11.7,31.7142857 12.8571429,30.5571429 12.8571429,29.1428571 L7.71428571,29.1428571 C7.71428571,30.5571429 8.87142857,31.7142857 10.2857143,31.7142857 L10.2857143,31.7142857 Z" id="icon/bell"></path>
            </g>
        </g>
    </g>
</svg>