<?xml version="1.0" encoding="UTF-8"?>
<svg width="20px" height="20px" viewBox="0 0 25 28" version="1.1" xmlns="http://www.w3.org/2000/svg" xmlns:xlink="http://www.w3.org/1999/xlink">
    <!-- Generator: Sketch 54.1 (76490) - https://sketchapp.com -->
    <title>Icon / Calendar / b</title>
    <desc>Created with Sketch.</desc>
    <g id="Icon-/-Calendar-/-b" stroke="none" stroke-width="1" fill="none" fill-rule="evenodd">
        <path d="M2,8.72413793 L23,8.72413793 L23,4.86206897 L2,4.86206897 L2,8.72413793 Z M2,26.0689655 L23,26.0689655 L23,11.0689655 L2,11.0689655 L2,26.0689655 Z M22.5,2.54545455 L21.25,2.54545455 L21.25,0 L18.75,0 L18.75,2.54545455 L6.25,2.54545455 L6.25,0 L3.75,0 L3.75,2.54545455 L2.5,2.54545455 C1.125,2.54545455 0,3.69090909 0,5.09090909 L0,25.4545455 C0,26.8545455 1.125,28 2.5,28 L22.5,28 C23.875,28 25,26.8545455 25,25.4545455 L25,5.09090909 C25,3.69090909 23.875,2.54545455 22.5,2.54545455 L22.5,2.54545455 Z" id="Fill-1" fill="#0077FF"></path>
    </g>
</svg>
