<?xml version="1.0" encoding="UTF-8"?>
<svg width="20px" height="20px" viewBox="0 0 20 20" version="1.1" xmlns="http://www.w3.org/2000/svg" xmlns:xlink="http://www.w3.org/1999/xlink">
    <!-- Generator: Sketch 54.1 (76490) - https://sketchapp.com -->
    <title>icon/commonpool/white</title>
    <desc>Created with Sketch.</desc>
    <g id="icon/commonpool/white" stroke="none" stroke-width="1" fill="none" fill-rule="evenodd">
        <g id="Group" transform="translate(1.000000, 0.000000)" fill="#F2F2F2" fill-rule="nonzero">
            <path d="M16,16.1084272 L16,8 L16,7.5 L2,7.5 L2,14.875 C2,14.9702326 2.02801639,15 2,15 L5,15 L5,17 L4.52218246,17 L2,17 C0.8954305,17 2.49800181e-16,16.0486051 0,14.875 L0,2.125 C0,0.951394907 0.8954305,2.35922393e-16 2,0 L16,0 C17.1045695,-2.35922393e-16 18,0.951394907 18,2.125 L18,14.875 C18,15.7209839 17.5347225,16.4515044 16.8612241,16.7934388 L18.0228343,17.7173755 C18.4550659,18.0611695 18.5267587,18.6902625 18.1829647,19.1224941 C17.8391707,19.5547257 17.2100777,19.6264185 16.7778461,19.2826245 L12.9756683,16.2583987 C12.2654805,16.7271463 11.4146045,17 10.5,17 C8.01471863,17 6,14.9852814 6,12.5 C6,10.0147186 8.01471863,8 10.5,8 C12.9852814,8 15,10.0147186 15,12.5 C15,13.3434313 14.7679601,14.1326667 14.3642353,14.8073513 L16,16.1084272 Z M16,5.5 L16,2.125 C16,2.02976742 15.9719836,2 16,2 L2,2 C2.02801639,2 2,2.02976742 2,2.125 L2,5.5 L16,5.5 Z M9.5,4.5 C8.94771525,4.5 8.5,4.05228475 8.5,3.5 C8.5,2.94771525 8.94771525,2.5 9.5,2.5 C10.0522847,2.5 10.5,2.94771525 10.5,3.5 C10.5,4.05228475 10.0522847,4.5 9.5,4.5 Z M12,4.5 C11.4477153,4.5 11,4.05228475 11,3.5 C11,2.94771525 11.4477153,2.5 12,2.5 C12.5522847,2.5 13,2.94771525 13,3.5 C13,4.05228475 12.5522847,4.5 12,4.5 Z M14.5,4.5 C13.9477153,4.5 13.5,4.05228475 13.5,3.5 C13.5,2.94771525 13.9477153,2.5 14.5,2.5 C15.0522847,2.5 15.5,2.94771525 15.5,3.5 C15.5,4.05228475 15.0522847,4.5 14.5,4.5 Z M10.5,15 C11.8807119,15 13,13.8807119 13,12.5 C13,11.1192881 11.8807119,10 10.5,10 C9.11928813,10 8,11.1192881 8,12.5 C8,13.8807119 9.11928813,15 10.5,15 Z" id="Combined-Shape"></path>
        </g>
    </g>
</svg>