<?xml version="1.0" encoding="UTF-8"?>
<svg width="20px" height="20px" viewBox="0 0 20 20" version="1.1" xmlns="http://www.w3.org/2000/svg" xmlns:xlink="http://www.w3.org/1999/xlink">
    <!-- Generator: Sketch 54.1 (76490) - https://sketchapp.com -->
    <title>icon/Dasboard/white</title>
    <desc>Created with Sketch.</desc>
    <g id="icon/Dasboard/white" stroke="none" stroke-width="1" fill="none" fill-rule="evenodd">
        <path d="M19,7 L10,7 L10,1 L15.5,1 C17.43,1 19,2.34571429 19,4 L19,7 Z M15.5,19 L10,19 L10,7 L19,7 L19,15.5 C19,17.43 17.43,19 15.5,19 L15.5,19 Z M1,11 L10,11 L10,19 L4.15,19 C2.413,19 1,17.43 1,15.5 L1,11 Z M10,1 L10,11 L1,11 L1,4.18181818 C1,2.42727273 2.413,1 4.15,1 L10,1 Z M4.68181818,1 C2.65190909,1 1,2.65190909 1,4.68181818 L1,15.3181818 C1,17.3480909 2.65190909,19 4.68181818,19 L15.3181818,19 C17.3480909,19 19,17.3480909 19,15.3181818 L19,4.68181818 C19,2.65190909 17.3480909,1 15.3181818,1 L4.68181818,1 Z" id="Dashboard-icon" stroke="#FFFFFF" stroke-width="2" transform="translate(10.000000, 10.000000) scale(-1, 1) translate(-10.000000, -10.000000) "></path>
    </g>
</svg>