<?xml version="1.0" encoding="UTF-8"?>
<svg width="20px" height="20px" viewBox="0 0 20 20" version="1.1" xmlns="http://www.w3.org/2000/svg" xmlns:xlink="http://www.w3.org/1999/xlink">
    <!-- Generator: Sketch 54.1 (76490) - https://sketchapp.com -->
    <title>icon/filter</title>
    <desc>Created with Sketch.</desc>
    <g id="icon/filter" stroke="none" stroke-width="1" fill="none" fill-rule="evenodd">
        <g id="Group" transform="translate(1.000000, 2.000000)" fill="#0077FF">
            <path d="M1.14285714,1.71428571 L16.8571429,1.71428571 C17.4883254,1.71428571 18,2.22596029 18,2.85714286 C18,3.48832543 17.4883254,4 16.8571429,4 L1.14285714,4 C0.511674572,4 7.72975716e-17,3.48832543 0,2.85714286 C-7.72975716e-17,2.22596029 0.511674572,1.71428571 1.14285714,1.71428571 Z M1.14285714,13.1428571 L16.8571429,13.1428571 C17.4883254,13.1428571 18,13.6545317 18,14.2857143 C18,14.9168969 17.4883254,15.4285714 16.8571429,15.4285714 L1.14285714,15.4285714 C0.511674572,15.4285714 7.72975716e-17,14.9168969 0,14.2857143 C-7.72975716e-17,13.6545317 0.511674572,13.1428571 1.14285714,13.1428571 Z M1.14285714,7.42857143 L16.8571429,7.42857143 C17.4883254,7.42857143 18,7.940246 18,8.57142857 C18,9.20261114 17.4883254,9.71428571 16.8571429,9.71428571 L1.14285714,9.71428571 C0.511674572,9.71428571 7.72975716e-17,9.20261114 0,8.57142857 C-7.72975716e-17,7.940246 0.511674572,7.42857143 1.14285714,7.42857143 Z" id="Combined-Shape" fill-rule="nonzero" transform="translate(9.000000, 8.571429) rotate(-180.000000) translate(-9.000000, -8.571429) "></path>
            <ellipse id="Oval-2-Copy" stroke="#FFFFFF" stroke-width="1.14285714" transform="translate(8.437500, 8.000000) rotate(-270.000000) translate(-8.437500, -8.000000) " cx="8.4375" cy="8" rx="2.28571429" ry="2.25"></ellipse>
            <ellipse id="Oval-2-Copy-2" stroke="#FFFFFF" stroke-width="1.14285714" transform="translate(14.062500, 13.714286) rotate(-270.000000) translate(-14.062500, -13.714286) " cx="14.0625" cy="13.7142857" rx="2.28571429" ry="2.25"></ellipse>
            <ellipse id="Oval-2" stroke="#FFFFFF" stroke-width="1.14285714" transform="translate(10.687500, 2.285714) rotate(-270.000000) translate(-10.687500, -2.285714) " cx="10.6875" cy="2.28571429" rx="2.28571429" ry="2.25"></ellipse>
        </g>
    </g>
</svg>