<?xml version="1.0" encoding="UTF-8"?>
<svg width="20px" height="20px" viewBox="0 0 20 20" version="1.1" xmlns="http://www.w3.org/2000/svg" xmlns:xlink="http://www.w3.org/1999/xlink">
    <!-- Generator: Sketch 54.1 (76490) - https://sketchapp.com -->
    <title>icon/query sample/white</title>
    <desc>Created with Sketch.</desc>
    <g id="icon/query-sample/white" stroke="none" stroke-width="1" fill="none" fill-rule="evenodd">
        <g id="Group-2" transform="translate(8.858251, 11.042022) rotate(-315.000000) translate(-8.858251, -11.042022) translate(3.858251, 0.542022)" fill="#F2F2F2" fill-rule="nonzero">
            <path d="M3.07882677,10.3353868 L3.07051828,16.0222282 C3.07051828,17.354414 4.00490733,18.3700543 5.07051828,18.3700543 C6.13612922,18.3700543 7.07051828,17.354414 7.07052653,16.0164835 L7.11043846,2.12130968 L3.09087894,2.08613855 L3.08296515,7.50282128 L5.23453075,5.35125569 C5.62505504,4.9607314 6.25822002,4.9607314 6.64874431,5.35125569 C7.0392686,5.74177998 7.0392686,6.37494496 6.64874431,6.76546925 L3.07882677,10.3353868 Z M9.1108126,1.99392976 L9.07051828,16.0222282 C9.07051828,18.4234663 7.27965728,20.3700543 5.07051828,20.3700543 C2.86137928,20.3700543 1.07051828,18.4234663 1.07051828,16.0222282 L1.09100291,2 L1,2 C0.44771525,2 -3.63804644e-12,1.55228475 -3.63797881e-12,1 C-3.63791117e-12,0.44771525 0.44771525,-1.01013365e-15 1,-9.76315967e-16 L9,9.83118911e-16 C9.55228475,1.0169366e-15 10,0.44771525 10,1 C10,1.51483062 9.61095081,1.93879393 9.1108126,1.99392976 Z M1.09100291,2 L1.09100888,1.99591436 C1.06103446,1.99861852 1.03067856,2 1,2 L1.09100291,2 Z M1.3708273,0.0710115484 L8.50066545,0.133397596 C8.64760165,0.0485504126 8.81813105,9.38573865e-16 9,9.83118911e-16 L1,-9.76315967e-16 C1.13102154,-9.44224945e-16 1.25615784,0.0251977177 1.3708273,0.0710115484 Z" id="Combined-Shape"></path>
        </g>
    </g>
</svg>