<?xml version="1.0" encoding="UTF-8"?>
<svg width="20px" height="20px" viewBox="0 0 20 20" version="1.1" xmlns="http://www.w3.org/2000/svg" xmlns:xlink="http://www.w3.org/1999/xlink">
    <!-- Generator: Sketch 54.1 (76490) - https://sketchapp.com -->
    <title>icon/report/white</title>
    <desc>Created with Sketch.</desc>
    <g id="icon/report/white" stroke="none" stroke-width="1" fill="none" fill-rule="evenodd">
        <g id="report" transform="translate(3.000000, 0.752021)">
            <path d="M5.06683586,2.24797924 L4.84720761,2.24797924 L2.36151496,4.93838142 L5.06683586,4.93838142 L5.06683586,2.24797924 Z M7.06683586,2.24797924 L7.06683586,6.93838142 L2,6.93838142 L2,5.32966899 L2,17.2479792 L13,17.2479792 L13,2.24797924 L7.06683586,2.24797924 Z M3.97208166,0.247979237 L13,0.247979237 C14.1045695,0.247979237 15,1.14340974 15,2.24797924 L15,17.2479792 C15,18.3525487 14.1045695,19.2479792 13,19.2479792 L2,19.2479792 C0.8954305,19.2479792 1.3527075e-16,18.3525487 0,17.2479792 L0,4.54718219 L3.97208166,0.247979237 Z M7.78948103,6.74797924 L7.78948103,4.74797924 L11.280816,4.74797924 L11.280816,6.74797924 L7.78948103,6.74797924 Z M3.38888889,10.7479792 L3.38888889,8.74797924 L11.280816,8.74797924 L11.280816,10.7479792 L3.38888889,10.7479792 Z M3.38888889,14.7479792 L3.38888889,12.7479792 L9.55203683,12.7479792 L9.55203683,14.7479792 L3.38888889,14.7479792 Z" id="Combined-Shape" fill="#F2F2F2" fill-rule="nonzero"></path>
            <path d="" id="Path-5" stroke="#0077FF"></path>
        </g>
    </g>
</svg>