<?xml version="1.0" encoding="UTF-8"?>
<svg width="25px" height="25px" viewBox="0 0 25 25" version="1.1" xmlns="http://www.w3.org/2000/svg" xmlns:xlink="http://www.w3.org/1999/xlink">
    <!-- Generator: Sketch 54.1 (76490) - https://sketchapp.com -->
    <title>Icon / Search / Small /g</title>
    <desc>Created with Sketch.</desc>
    <g id="Icon-/-Search-/-Small-/g" stroke="none" stroke-width="1" fill="none" fill-rule="evenodd" fill-opacity="0.6">
        <path d="M17.8673528,15.7232704 L16.7309891,15.7232704 L16.3379074,15.3301887 C17.7387078,13.707833 18.5820469,11.5994854 18.5820469,9.29102344 C18.5820469,4.15951973 14.4225272,0 9.29102344,0 C4.15951973,0 0,4.15951973 0,9.29102344 C0,14.4225272 4.15951973,18.5820469 9.29102344,18.5820469 C11.5994854,18.5820469 13.707833,17.7387078 15.3301887,16.3450543 L15.7232704,16.7381361 L15.7232704,17.8673528 L22.8702115,25 L25,22.8702115 L17.8673528,15.7232704 Z M9.375,15.625 C5.92361111,15.625 3.125,12.8263889 3.125,9.375 C3.125,5.92361111 5.92361111,3.125 9.375,3.125 C12.8263889,3.125 15.625,5.92361111 15.625,9.375 C15.625,12.8263889 12.8263889,15.625 9.375,15.625 Z" id="Shape" fill="#354052" fill-rule="nonzero"></path>
    </g>
</svg>