<?xml version="1.0" encoding="UTF-8"?>
<svg width="20px" height="20px" viewBox="0 0 20 20" version="1.1" xmlns="http://www.w3.org/2000/svg" xmlns:xlink="http://www.w3.org/1999/xlink">
    <!-- Generator: Sketch 54.1 (76490) - https://sketchapp.com -->
    <title>icon/workspace/white</title>
    <desc>Created with Sketch.</desc>
    <g id="icon/workspace/white" stroke="none" stroke-width="1" fill="none" fill-rule="evenodd">
        <g id="Group" fill="#F2F2F2" fill-rule="nonzero">
            <path d="M2,11.3967798 L2,14.125 C2,14.5933079 2.43380492,15 3,15 L17,15 C17.5661951,15 18,14.5933079 18,14.125 L18,11.4941441 C17.9642479,11.4980143 17.9279307,11.5 17.8911497,11.5 L2.44297976,11.5 C2.28391262,11.5 2.13351989,11.4628604 2,11.3967798 Z M2,9.60322024 C2.13351989,9.53713956 2.28391262,9.5 2.44297976,9.5 L17.8911497,9.5 C17.9279307,9.5 17.9642479,9.50198574 18,9.50585588 L18,2.875 C18,2.40669211 17.5661951,2 17,2 L3,2 C2.43380492,2 2,2.40669211 2,2.875 L2,9.60322024 Z M17,17 C17.1241504,17 17.2466684,16.9927353 17.3670916,16.9786121 L17.3670916,15 L17,15 L17,17 Z M17.3670916,17 L3,17 C1.35705608,17 3.33066907e-16,15.7277599 0,14.125 L0,2.875 C0,1.27224008 1.35705608,3.33066907e-16 3,0 L17,0 C18.6429439,-2.22044605e-16 20,1.27224008 20,2.875 L20,14.125 C20,15.606646 18.840289,16.8058369 17.3670916,16.9786121 L17.3670916,17 Z M4,20.5 C3.44771525,20.5 3,20.0522847 3,19.5 C3,18.9477153 3.44771525,18.5 4,18.5 L16,18.5 C16.5522847,18.5 17,18.9477153 17,19.5 C17,20.0522847 16.5522847,20.5 16,20.5 L4,20.5 Z M10,14 C9.44771525,14 9,13.5522847 9,13 C9,12.4477153 9.44771525,12 10,12 C10.5522847,12 11,12.4477153 11,13 C11,13.5522847 10.5522847,14 10,14 Z" id="Combined-Shape"></path>
        </g>
    </g>
</svg>